<?xml version="1.0" encoding="UTF-8" standalone="no"?>
<svg
   xmlns:dc="http://purl.org/dc/elements/1.1/"
   xmlns:cc="http://creativecommons.org/ns#"
   xmlns:rdf="http://www.w3.org/1999/02/22-rdf-syntax-ns#"
   xmlns:svg="http://www.w3.org/2000/svg"
   xmlns="http://www.w3.org/2000/svg"
   xmlns:sodipodi="http://sodipodi.sourceforge.net/DTD/sodipodi-0.dtd"
   xmlns:inkscape="http://www.inkscape.org/namespaces/inkscape"
   width="24"
   height="24"
   viewBox="-3 0 24 24"
   preserveAspectRatio="xMinYMid meet"
   overflow="visible"
   version="1.1"
   id="svg935"
   sodipodi:docname="icon.svg"
   inkscape:version="1.0.2 (e86c870879, 2021-01-15, custom)">
  <metadata
     id="metadata941">
    <rdf:RDF>
      <cc:Work
         rdf:about="">
        <dc:format>image/svg+xml</dc:format>
        <dc:type
           rdf:resource="http://purl.org/dc/dcmitype/StillImage" />
        <dc:title></dc:title>
      </cc:Work>
    </rdf:RDF>
  </metadata>
  <defs
     id="defs939" />
  <sodipodi:namedview
     pagecolor="#ffffff"
     bordercolor="#666666"
     borderopacity="1"
     objecttolerance="10"
     gridtolerance="10"
     guidetolerance="10"
     inkscape:pageopacity="0"
     inkscape:pageshadow="2"
     inkscape:window-width="1920"
     inkscape:window-height="1017"
     id="namedview937"
     showgrid="false"
     inkscape:zoom="24.365722"
     inkscape:cx="10.655529"
     inkscape:cy="10.009495"
     inkscape:window-x="1912"
     inkscape:window-y="-8"
     inkscape:window-maximized="1"
     inkscape:current-layer="svg935"
     inkscape:document-rotation="0" />
  <linearGradient
     id="a"
     gradientUnits="userSpaceOnUse"
     x1="9.499"
     x2="9.499"
     y2="24">
    <stop
       offset="0"
       stop-color="#95BFF8"
       id="stop888" />
    <stop
       offset=".557"
       stop-color="#84ADEF"
       id="stop890" />
    <stop
       offset="1"
       stop-color="#7CA4EB"
       id="stop892" />
  </linearGradient>
  <linearGradient
     id="b"
     gradientUnits="userSpaceOnUse"
     x1="9.499"
     y1="1"
     x2="9.499"
     y2="23">
    <stop
       offset="0"
       stop-color="#E7F4FC"
       id="stop897" />
    <stop
       offset="1"
       stop-color="#DEEFFC"
       id="stop899" />
  </linearGradient>
  <linearGradient
     id="c"
     gradientUnits="userSpaceOnUse"
     x1="9.499"
     y1="2"
     x2="9.499"
     y2="22">
    <stop
       offset="0"
       stop-color="#CEE9F9"
       id="stop904" />
    <stop
       offset="1"
       stop-color="#BBDFF8"
       id="stop906" />
  </linearGradient>
  <linearGradient
     id="d"
     gradientUnits="userSpaceOnUse"
     x1="14.245"
     x2="14.245"
     y2="9.359">
    <stop
       offset="0"
       stop-color="#95BFF8"
       id="stop911" />
    <stop
       offset=".557"
       stop-color="#84ADEF"
       id="stop913" />
    <stop
       offset="1"
       stop-color="#7CA4EB"
       id="stop915" />
  </linearGradient>
  <linearGradient
     id="e"
     gradientUnits="userSpaceOnUse"
     x1="11.322"
     y1="7.545"
     x2="14.45"
     y2="4.417">
    <stop
       offset="0"
       stop-color="#E7F4FC"
       id="stop920" />
    <stop
       offset=".518"
       stop-color="#E5F3FC"
       id="stop922" />
    <stop
       offset=".705"
       stop-color="#DEF0FB"
       id="stop924" />
    <stop
       offset=".837"
       stop-color="#D3EBFA"
       id="stop926" />
    <stop
       offset=".872"
       stop-color="#CEE9F9"
       id="stop928" />
    <stop
       offset="1"
       stop-color="#BDD8F0"
       id="stop930" />
  </linearGradient>
  <path
     fill="currentColor"
     d="m 20.958612,11.439636 c 0,-0.979127 -0.53659,-1.8248291 -1.325946,-2.2839392 V 2.821399 c 0,-0.3625652 -0.28922,-1.3263627 -1.325946,-1.3263627 -0.295023,0 -0.587976,0.098619 -0.827889,0.2908783 L 13.95554,4.6047961 C 12.185816,6.0194172 9.9640256,6.7988244 7.6991439,6.7988244 h -7.95568441 c -1.46475259,0 -2.65189169,1.1871389 -2.65189169,2.6518918 v 3.9778418 c 0,1.464756 1.1871391,2.651896 2.65189169,2.651896 H 1.1398509 c -0.057598,0.434247 -0.090333,0.875951 -0.090333,1.325946 0,1.647901 0.3836989,3.205063 1.0591009,4.596892 0.2150554,0.44295 0.6845209,0.706896 1.176778,0.706896 h 3.0778577 c 1.0794008,0 1.727457,-1.236446 1.0731852,-2.094997 -0.679547,-0.891698 -1.0835456,-2.003834 -1.0835456,-3.208791 0,-0.46035 0.067119,-0.902888 0.1827316,-1.325946 h 1.1635185 c 2.2648817,0 4.4866718,0.779407 6.2559828,2.194028 l 3.523291,2.818878 a 1.3269001,1.3269001 0 0 0 0.82789,0.290882 c 1.032581,0 1.325946,-0.943909 1.325946,-1.325946 v -6.334298 c 0.789768,-0.459527 1.326358,-1.305229 1.326358,-2.284362 z M 16.980775,17.299495 15.61132,16.20393 C 13.373784,14.413901 10.563188,13.428558 7.6991439,13.428558 V 9.4507162 c 2.8640441,0 5.6746401,-0.9853437 7.9121761,-2.7753683 l 1.369455,-1.0955645 z"
     id="path859"
     style="fill:#d5045c;fill-opacity:1;stroke-width:0.0414359" />
</svg>
